<svg width="438" height="234" viewBox="0 0 438 234" fill="none" xmlns="http://www.w3.org/2000/svg">
<path d="M0 1.5V5.5H56.5V178H73.5V5.5H131V1.5H0Z" fill="white"/>
<path d="M143 177.5V2H166.5L223.5 141.5L279 1H298.5V177.5H280V10L213.5 177.5L147.5 14V177.5H143Z" fill="white"/>
<path d="M406 0H399.5L303.5 89L385.5 178H413.5L321 79.5L406 0Z" fill="white"/>
<path d="M21.6564 205H0L0.00010045 205.812H9.47466V233.695H12.1817V205.812H21.6564V205Z" fill="white"/>
<path d="M28.9654 205H25.4463V233.695H28.9654V220.701H43.0421V233.695H44.1249V205H43.0421V219.347H28.9654V205Z" fill="white"/>
<path d="M63.8858 205.542H48.9971V233.966H63.8858V233.425H52.2455V220.701H61.9909V219.889H52.2455V206.625H63.8858V205.542Z" fill="white"/>
<path d="M77.692 233.913H76.8799V205H80.6697L89.8737 227.739L98.807 205H102.326V233.695H98.807V207.166L88.2495 233.695L77.692 207.978V233.913Z" fill="white"/>
<path d="M132.104 205.542H128.855L139.684 233.966L149.97 205.542H148.617L140.496 228.281L132.104 205.542Z" fill="white"/>
<path d="M401.725 205.542H398.477L409.305 233.966L419.592 205.542H418.238L410.117 228.281L401.725 205.542Z" fill="white"/>
<path d="M174.063 233.966H173.251V205.542H177.041L186.245 228.01L195.449 205.542H198.697V233.966H195.449V207.437L184.621 233.966L174.063 208.249V233.966Z" fill="white"/>
<path d="M168.649 205.542H153.761V233.966H168.649V233.154H157.28V220.701H167.025V219.889H157.28V206.354H168.649V205.542Z" fill="white"/>
<path d="M218.459 205.542H203.57V233.966H218.459V233.154H207.089V220.701H216.835V219.889H207.089V206.354H218.459V205.542Z" fill="white"/>
<path d="M343.255 205.542H328.637V233.966H343.255V233.425H332.156V220.701H341.901V219.619H332.156V206.083H343.255V205.542Z" fill="white"/>
<path d="M438.001 205.542H423.383V233.966H438.001V233.425H426.902V220.701H436.647V219.619H426.902V206.083H438.001V205.542Z" fill="white"/>
<path d="M223.061 205V233.695H224.143V210.143L241.198 233.695V205H240.386V228.01L223.602 205H223.061Z" fill="white"/>
<path d="M266.102 205H244.445V205.541H253.92V233.695H256.627V205.541H266.102V205Z" fill="white"/>
<path d="M386.026 205H364.369V205.541H373.844V233.695H376.551V205.541H386.026V205Z" fill="white"/>
<path d="M285.595 233.966H282.617V205.542H285.595V233.966Z" fill="white"/>
<path d="M299.941 233.695L286.947 219.347L302.648 205L303.19 205.541L289.925 217.994L304.272 233.695H299.941Z" fill="white"/>
<path d="M362.2 233.695L359.209 224.758H348.853C347.368 229.165 346.284 232.772 346.043 233.695H344.879L354.653 205H356.841L366.535 233.695H362.2ZM349.134 223.898H358.928L354.071 209.345L349.676 222.319L349.134 223.898Z" fill="white"/>
<path d="M307.25 233.465V205H314.449C322.805 205 324.92 209.27 324.92 212.584C324.92 216.833 321.748 219.131 319.044 220.066L326.343 233.465H322.409L315.642 220.701C314.015 220.62 311.724 220.432 310.606 220.269V233.465H307.25ZM310.606 205.854V219.517C311.887 219.639 313.473 219.72 314.774 219.72C315.364 219.72 315.892 219.7 316.319 219.659C317.986 219.029 320.589 217.179 320.589 212.787C320.589 206.403 315.201 205.854 312.741 205.854H310.606Z" fill="white"/>
<path d="M117.215 233.43C110.492 233.43 105.033 226.917 105.033 219.524C105.033 212.131 110.492 205.542 117.215 205.542C123.919 205.542 129.397 212.131 129.397 219.524C129.397 226.917 123.919 233.43 117.215 233.43ZM109.036 218.126C109.036 225.807 112.503 232.031 117.981 232.664C122.559 232.089 125.394 227.856 125.394 220.903C125.394 213.203 121.812 206.94 116.372 206.308C111.852 206.902 109.036 211.097 109.036 218.126Z" fill="white"/>
<path d="M394.147 233.695H391.169L390.898 205H394.147V233.695Z" fill="white"/>
</svg>
