<svg width="441" height="245" viewBox="0 0 441 245" fill="none" xmlns="http://www.w3.org/2000/svg">
<path d="M0 1.5V5.5H56.5V178H73.5V5.5H131V1.5H0Z" fill="white"/>
<path d="M143 177.5V2H166.5L223.5 141.5L279 1H298.5V177.5H280V10L213.5 177.5L147.5 14V177.5H143Z" fill="white"/>
<path d="M406 0H399.5L303.5 89L385.5 178H413.5L321 79.5L406 0Z" fill="white"/>
<path d="M0.362371 207.842V206.816H20.0914V207.842C19.0245 207.822 13.3473 207.661 12.381 207.661V235H8.254V207.661H8.11308C7.26755 207.661 1.44948 207.822 0.362371 207.842ZM23.2446 235V206.816H27.3716V220.123H40.0344V206.816H44.1614V235H40.0344V220.968H27.3716V235H23.2446ZM49.7461 235V206.816H65.4891V207.842C64.402 207.802 58.7248 207.661 57.4364 207.661H53.8731V220.123H56.2285C57.3559 220.123 63.1135 220.082 64.2812 220.042V221.069C63.1135 221.029 57.3559 220.968 56.2285 220.968H53.8731V234.154H57.5974C58.8859 234.154 64.563 234.014 65.6501 233.973V235H49.7461ZM88.8991 235L79.4573 213.721V223.324C79.4573 226.645 79.6385 234.436 79.6586 235H78.6118V206.816H80.9873L91.7578 231.215L101.944 206.816H104.36V235H100.233V213.137L91.0935 235H88.8991ZM121.4 235.564C114.333 235.564 108.596 228.719 108.596 220.948C108.596 213.177 114.333 206.252 121.4 206.252C128.446 206.252 134.203 213.177 134.203 220.948C134.203 228.719 128.446 235.564 121.4 235.564ZM112.803 219.478C112.803 227.551 116.447 234.094 122.205 234.758C127.016 234.154 129.996 229.705 129.996 222.398C129.996 214.305 126.231 207.722 120.514 207.057C115.763 207.681 112.803 212.09 112.803 219.478ZM144.343 235L134.639 206.816H139.068L147.141 230.43L150.624 220.505C152.033 216.499 154.63 208.95 155.294 206.816H156.442L148.651 228.759C148.047 230.45 146.98 233.631 146.537 235H144.343ZM159.487 235V206.816H175.23V207.842C174.143 207.802 168.466 207.661 167.178 207.661H163.614V220.123H165.97C167.097 220.123 172.855 220.082 174.023 220.042V221.069C172.855 221.029 167.097 220.968 165.97 220.968H163.614V234.154H167.339C168.627 234.154 174.304 234.014 175.392 233.973V235H159.487ZM189.125 235L179.683 213.721V223.324C179.683 226.645 179.865 234.436 179.885 235H178.838V206.816H181.213L191.984 231.215L202.17 206.816H204.586V235H200.459V213.137L191.319 235H189.125ZM210.171 235V206.816H225.914V207.842C224.826 207.802 219.149 207.661 217.861 207.661H214.298V220.123H216.653C217.78 220.123 223.538 220.082 224.706 220.042V221.069C223.538 221.029 217.78 220.968 216.653 220.968H214.298V234.154H218.022C219.31 234.154 224.988 234.014 226.075 233.973V235H210.171ZM246.975 235L230.366 212.231V222.116C230.366 226.645 230.548 234.436 230.568 235H229.521V206.816H231.796L248.404 229.705V219.7C248.404 215.17 248.223 207.581 248.203 206.816H249.25V235H246.975ZM251.773 207.842V206.816H271.502V207.842C270.435 207.822 264.758 207.661 263.791 207.661V235H259.664V207.661H259.523C258.678 207.661 252.86 207.822 251.773 207.842ZM284.17 235V206.816H288.297V223.404L299.249 211.647C300.537 210.258 302.39 208.064 303.416 206.816H304.886L295.504 216.922L305.711 235H300.819L292.565 220.082L288.297 224.672V235H284.17ZM308.863 235V206.816H316.795C325.069 206.816 327.163 211.043 327.163 214.325C327.163 218.532 324.022 220.807 321.345 221.733L328.572 235H323.902L317.238 222.337C315.627 222.257 314.097 222.096 312.99 221.935V235H308.863ZM312.99 207.661V221.19C314.258 221.31 315.829 221.391 317.117 221.391C317.701 221.391 318.224 221.371 318.647 221.331C320.298 220.706 322.875 218.875 322.875 214.526C322.875 208.205 317.54 207.661 315.104 207.661H312.99ZM331.747 235V206.816H347.49V207.842C346.403 207.802 340.726 207.661 339.438 207.661H335.874V220.123H338.23C339.357 220.123 345.115 220.082 346.282 220.042V221.069C345.115 221.029 339.357 220.968 338.23 220.968H335.874V234.154H339.599C340.887 234.154 346.564 234.014 347.651 233.973V235H331.747ZM366.478 235L363.479 226.223H353.091C351.601 230.551 350.514 234.094 350.272 235H349.105L358.909 206.816H361.103L370.827 235H366.478ZM353.372 225.377H363.197L358.325 211.084L353.916 223.827L353.372 225.377ZM368.513 207.842V206.816H388.242V207.842C387.175 207.822 381.498 207.661 380.532 207.661V235H376.405V207.661H376.264C375.418 207.661 369.6 207.822 368.513 207.842ZM391.395 235V206.816H395.522V235H391.395ZM408.375 235L398.671 206.816H403.1L411.173 230.43L414.656 220.505C416.065 216.499 418.662 208.95 419.326 206.816H420.474L412.683 228.759C412.079 230.45 411.012 233.631 410.569 235H408.375ZM423.519 235V206.816H439.262V207.842C438.175 207.802 432.498 207.661 431.21 207.661H427.646V220.123H430.002C431.129 220.123 436.887 220.082 438.055 220.042V221.069C436.887 221.029 431.129 220.968 430.002 220.968H427.646V234.154H431.371C432.659 234.154 438.336 234.014 439.424 233.973V235H423.519Z" fill="white"/>
</svg>
